# xmcd
# Track frame offsets:
# 183
# 11700
# 22858
# 38570
# 52960
# 62878
# 74940
# 89923
# 101168
# 110793
#
# Disc length: 1640 seconds
# Revision: 0
# Processed by: cddbd v1.4PL0 Copyright (c) Steve Scherf et al.
# Submitted via: VisiTrax 2.9.5.181 - For more info visit www.synapsa.com
#
DISCID=9006660a
DTITLE=A.J. Wolf - Country from Nashville
DYEAR=1900
DGENRE=
TTITLE0=The ways of a woman in love
TTITLE1=Lovin' all through the night
TTITLE2=The love goes on
TTITLE3=Get yourself on back home
TTITLE4=When my blue moon turns to gold again
TTITLE5=Rockin little angel
TTITLE6=Someday my day will come
TTITLE7=Dont you know i love you
TTITLE8=Wiggle Wiggle
TTITLE9=I can do that too
EXTD=
EXTT0=
EXTT1=
EXTT2=
EXTT3=
EXTT4=
EXTT5=
EXTT6=
EXTT7=
EXTT8=
EXTT9=
PLAYORDER=
